<svg xmlns="http://www.w3.org/2000/svg" viewBox="0 0 176 176" width="176" height="176"><defs>
<radialGradient id="pbgbrenhil" cx="0.5" cy="0.35" r="0.9">
  <stop offset="0" stop-color="#F4D9A0"/><stop offset="1" stop-color="#B04A3A"/>
</radialGradient>
<clipPath id="pcbrenhil"><circle cx="88" cy="88" r="76"/></clipPath>
</defs>
<circle cx="88" cy="88" r="84" fill="#C9A227" stroke="#3A3128" stroke-width="4"/>
<circle cx="88" cy="88" r="76" fill="url(#pbgbrenhil)" stroke="#FFFFFF55" stroke-width="2"/><g clip-path="url(#pcbrenhil)"><path d="M 20 60 Q 88 30 156 60 L 156 176 L 20 176 Z" fill="#5A2E28" stroke="none" stroke-width="0" opacity="0.55"/><line x1="88" y1="52" x2="88" y2="176" stroke="#7A4030" stroke-width="3" opacity="0.6"/><path d="M 34 122 Q 30 96 62 100 L 66 130 Z" fill="#9A9CA1" stroke="#3A3128" stroke-width="3" stroke-linejoin="round"/><path d="M 142 122 Q 146 96 114 100 L 110 130 Z" fill="#9A9CA1" stroke="#3A3128" stroke-width="3" stroke-linejoin="round"/><path d="M 40 118 l 8 6 M 48 114 l 8 6" fill="none" stroke="#6B6E73" stroke-width="2.4" stroke-linecap="round"/><path d="M 128 118 l -8 6 M 120 114 l -8 6" fill="none" stroke="#6B6E73" stroke-width="2.4" stroke-linecap="round"/><path d="M 62 104 L 114 104 L 108 150 Q 88 158 68 150 Z" fill="#B9BCC0" stroke="#3A3128" stroke-width="3" stroke-linejoin="round"/><g transform="translate(88,124)"><circle cx="0" cy="0" r="8" fill="#C9A227" stroke="#3A3128" stroke-width="2.4"/><g transform="rotate(0)"><rect x="-1.6" y="-11" width="3.2" height="5" rx="1" fill="#C9A227" stroke="none" stroke-width="0"/></g><g transform="rotate(45)"><rect x="-1.6" y="-11" width="3.2" height="5" rx="1" fill="#C9A227" stroke="none" stroke-width="0"/></g><g transform="rotate(90)"><rect x="-1.6" y="-11" width="3.2" height="5" rx="1" fill="#C9A227" stroke="none" stroke-width="0"/></g><g transform="rotate(135)"><rect x="-1.6" y="-11" width="3.2" height="5" rx="1" fill="#C9A227" stroke="none" stroke-width="0"/></g><g transform="rotate(180)"><rect x="-1.6" y="-11" width="3.2" height="5" rx="1" fill="#C9A227" stroke="none" stroke-width="0"/></g><g transform="rotate(225)"><rect x="-1.6" y="-11" width="3.2" height="5" rx="1" fill="#C9A227" stroke="none" stroke-width="0"/></g><g transform="rotate(270)"><rect x="-1.6" y="-11" width="3.2" height="5" rx="1" fill="#C9A227" stroke="none" stroke-width="0"/></g><g transform="rotate(315)"><rect x="-1.6" y="-11" width="3.2" height="5" rx="1" fill="#C9A227" stroke="none" stroke-width="0"/></g></g><circle cx="88" cy="74" r="27" fill="#E8C9A4" stroke="#3A3128" stroke-width="3.2"/><path d="M 62 62 Q 46 44 52 22 Q 64 34 70 48 Q 66 60 70 66 Z" fill="#B04A3A" stroke="#3A3128" stroke-width="2.8" stroke-linejoin="round"/><path d="M 114 62 Q 130 44 124 22 Q 112 34 106 48 Q 110 60 106 66 Z" fill="#B04A3A" stroke="#3A3128" stroke-width="2.8" stroke-linejoin="round"/><path d="M 62 64 Q 66 40 88 40 Q 110 40 114 64 Q 100 52 88 54 Q 76 52 62 64 Z" fill="#B04A3A" stroke="#3A3128" stroke-width="2.8" stroke-linejoin="round"/><line x1="103" y1="62" x2="108" y2="72" stroke="#8A5A4A" stroke-width="2"/><circle cx="76" cy="74" r="3.6" fill="#3A3128" stroke="none" stroke-width="0"/><circle cx="74.92" cy="72.74" r="1.15" fill="#FFFFFF" stroke="none" stroke-width="0"/><circle cx="100" cy="74" r="3.6" fill="#3A3128" stroke="none" stroke-width="0"/><circle cx="98.92" cy="72.74" r="1.15" fill="#FFFFFF" stroke="none" stroke-width="0"/><path d="M 71 67 L 80 71" fill="none" stroke="#3A3128" stroke-width="2.8" stroke-linecap="round"/><path d="M 105 67 L 96 71" fill="none" stroke="#3A3128" stroke-width="2.8" stroke-linecap="round"/><path d="M 80 88 Q 88 94 96 88" fill="none" stroke="#3A3128" stroke-width="2.6" stroke-linecap="round"/><path d="M 63 78 Q 88 90 113 78" fill="none" stroke="#9A9CA1" stroke-width="3.4"/><g transform="translate(140,72) rotate(24)"><rect x="-12" y="-10" width="24" height="22" rx="7" fill="#9A9CA1" stroke="#3A3128" stroke-width="3"/><rect x="-14" y="-4" width="28" height="8" rx="4" fill="#B9BCC0" stroke="#3A3128" stroke-width="2.6"/><line x1="-8" y1="-10" x2="-8" y2="-6" stroke="#3A3128" stroke-width="2"/><line x1="0" y1="-10" x2="0" y2="-6" stroke="#3A3128" stroke-width="2"/><line x1="8" y1="-10" x2="8" y2="-6" stroke="#3A3128" stroke-width="2"/></g><path d="M 150 52 q 10 -4 14 4" fill="none" stroke="#F5C542" stroke-width="2.6" stroke-linecap="round"/><path d="M 152 66 q 12 0 14 8" fill="none" stroke="#F5C542" stroke-width="2.6" stroke-linecap="round"/></g><path d="M 26 128 Q 88 118 150 128 L 150 150 Q 88 162 26 150 Z" fill="#2A2620" opacity="0.92" stroke="#3A3128" stroke-width="2.4"/><text x="88" y="143" font-family="'ZCOOL KuaiLe','Baloo 2','Yuanti SC','Noto Sans SC','PingFang SC','Microsoft YaHei',sans-serif" font-size="15" fill="#FFF6E0" text-anchor="middle" font-weight="bold" >布伦希尔</text><text x="88" y="156" font-family="'ZCOOL KuaiLe','Baloo 2','Yuanti SC','Noto Sans SC','PingFang SC','Microsoft YaHei',sans-serif" font-size="10.5" fill="#C9B98A" text-anchor="middle" font-weight="bold" >战争践踏 · 攻+2</text></svg>