<svg xmlns="http://www.w3.org/2000/svg" viewBox="0 0 176 176" width="176" height="176"><defs>
<radialGradient id="pbgtali" cx="0.5" cy="0.35" r="0.9">
  <stop offset="0" stop-color="#C4DECB"/><stop offset="1" stop-color="#275534"/>
</radialGradient>
<clipPath id="pctali"><circle cx="88" cy="88" r="76"/></clipPath>
</defs>
<circle cx="88" cy="88" r="84" fill="#C9A227" stroke="#3A3128" stroke-width="4"/>
<circle cx="88" cy="88" r="76" fill="url(#pbgtali)" stroke="#FFFFFF55" stroke-width="2"/><g clip-path="url(#pctali)"><path d="M 26 40 a 3.2 3.2 0 1 0 0.1 0" fill="#C4DECB" stroke="none" stroke-width="0" opacity="0.5"/><path d="M 152 48 a 3.6 3.6 0 1 0 0.1 0" fill="#C4DECB" stroke="none" stroke-width="0" opacity="0.5"/><path d="M 22 112 a 3 3 0 1 0 0.1 0" fill="#C4DECB" stroke="none" stroke-width="0" opacity="0.5"/><path d="M 150 110 a 3 3 0 1 0 0.1 0" fill="#C4DECB" stroke="none" stroke-width="0" opacity="0.5"/><path d="M 50 128 Q 54 102 76 98 L 100 98 Q 122 102 126 128 Q 88 146 50 128 Z" fill="#3E7C4F" stroke="#3A3128" stroke-width="3" stroke-linejoin="round"/><path d="M 88 98 L 88 128" stroke="#275534" stroke-width="2" opacity="0.7"/><path d="M 66 104 Q 70 116 66 128 M 110 104 Q 106 116 110 128" stroke="#275534" stroke-width="2.4" fill="none" stroke-linecap="round"/><circle cx="68" cy="112" r="13" fill="#9AA3AD" stroke="#3A3128" stroke-width="2.6"/><path d="M 59 104 L 61 95 L 66 102 Z" fill="#7C8894" stroke="#3A3128" stroke-width="2"/><path d="M 75 102 L 78 94 L 81 102 Z" fill="#7C8894" stroke="#3A3128" stroke-width="2"/><circle cx="64" cy="111" r="1.8" fill="#3A3128" stroke="none" stroke-width="0"/><circle cx="73" cy="111" r="1.8" fill="#3A3128" stroke="none" stroke-width="0"/><circle cx="68.5" cy="116" r="1.4" fill="#3A3128" stroke="none" stroke-width="0"/><circle cx="88" cy="66" r="25" fill="#F2D0AC" stroke="#3A3128" stroke-width="3.2"/><path d="M 60 64 Q 58 38 88 34 Q 118 38 116 64 L 112 70 Q 108 46 88 44 Q 68 46 64 70 Z" fill="#4E8B5E" stroke="#3A3128" stroke-width="3" stroke-linejoin="round"/><path d="M 58 52 L 52 34 L 70 44 Z" fill="#4E8B5E" stroke="#3A3128" stroke-width="2.6" stroke-linejoin="round"/><path d="M 118 52 L 124 34 L 106 44 Z" fill="#4E8B5E" stroke="#3A3128" stroke-width="2.6" stroke-linejoin="round"/><path d="M 60 49 L 57 39 L 66 45 Z" fill="#C4DECB" stroke="none" stroke-width="0"/><path d="M 116 49 L 119 39 L 110 45 Z" fill="#C4DECB" stroke="none" stroke-width="0"/><path d="M 112 56 Q 126 62 122 84 Q 132 72 124 56 Q 118 50 112 54 Z" fill="#8A5A3B" stroke="#3A3128" stroke-width="2.4" stroke-linejoin="round"/><circle cx="78" cy="70" r="3.2" fill="#3A3128" stroke="none" stroke-width="0"/><circle cx="79.12" cy="68.88" r="1.024" fill="#FFF6E0" stroke="none" stroke-width="0"/><circle cx="98" cy="70" r="3.2" fill="#3A3128" stroke="none" stroke-width="0"/><circle cx="99.12" cy="68.88" r="1.024" fill="#FFF6E0" stroke="none" stroke-width="0"/><circle cx="71" cy="82" r="4" fill="#F0A8A0" opacity="0.7" stroke="none" stroke-width="0"/><circle cx="105" cy="82" r="4" fill="#F0A8A0" opacity="0.7" stroke="none" stroke-width="0"/><path d="M 83 83 Q 88 87 93 83" fill="none" stroke="#3A3128" stroke-width="2.2" stroke-linecap="round"/><circle cx="34" cy="92" r="2.6" fill="#C4DECB" stroke="none" stroke-width="0" opacity="0.8"/><circle cx="30" cy="86" r="1.2" fill="#C4DECB" stroke="none" stroke-width="0" opacity="0.8"/><circle cx="37" cy="86" r="1.2" fill="#C4DECB" stroke="none" stroke-width="0" opacity="0.8"/></g><path d="M 26 128 Q 88 118 150 128 L 150 150 Q 88 162 26 150 Z" fill="#2A2620" opacity="0.92" stroke="#3A3128" stroke-width="2.4"/><text x="88" y="143" font-family="'ZCOOL KuaiLe','Baloo 2','Yuanti SC','Noto Sans SC','PingFang SC','Microsoft YaHei',sans-serif" font-size="15" fill="#FFF6E0" text-anchor="middle" font-weight="bold">苔莉</text><text x="88" y="156" font-family="'ZCOOL KuaiLe','Baloo 2','Yuanti SC','Noto Sans SC','PingFang SC','Microsoft YaHei',sans-serif" font-size="10.5" fill="#C9B98A" text-anchor="middle" font-weight="bold">兽群哺育 · 战开唤狼</text></svg>