<svg xmlns="http://www.w3.org/2000/svg" viewBox="0 0 176 176" width="176" height="176"><defs>
<linearGradient id="bgt74" x1="0" y1="0" x2="0" y2="1">
  <stop offset="0" stop-color="#C4DECB"/><stop offset="1" stop-color="#E8F3EB"/>
</linearGradient>
<radialGradient id="glowt74" cx="0.5" cy="0.42" r="0.62">
  <stop offset="0" stop-color="#FFFFFF" stop-opacity="0.55"/><stop offset="1" stop-color="#FFFFFF" stop-opacity="0"/>
</radialGradient>
<linearGradient id="goldt74" x1="0" y1="0" x2="0" y2="1">
  <stop offset="0" stop-color="#FFE9A0"/><stop offset="0.55" stop-color="#F2C94C"/><stop offset="1" stop-color="#D19A1E"/>
</linearGradient>
</defs><rect x="5" y="5" width="166" height="166" rx="22" fill="url(#goldt74)" stroke="#8A5A0B" stroke-width="3.5"/><rect x="11" y="11" width="154" height="154" rx="17" fill="url(#bgt74)" stroke="#E8B84B" stroke-width="2"/><rect x="11" y="11" width="154" height="154" rx="17" fill="url(#glowt74)"/><g transform="translate(38,8)"><ellipse cx="50" cy="119" rx="32" ry="6" fill="#1E3D26" stroke="none" stroke-width="0" opacity="0.24"/><path d="M 50 8 L 54 16 L 46 16 Z M 30 14 L 37 19 L 31 23 Z M 70 14 L 63 19 L 69 23 Z M 16 30 L 25 30 L 20 37 Z M 84 30 L 75 30 L 80 37 Z" fill="#DFF0E3" stroke="none" stroke-width="0" opacity="0.85"/><path d="M 36 112 L 38 52 Q 38 46 44 46 L 56 46 Q 62 46 62 52 L 64 112 Z" fill="#7A5230" stroke="#3A3128" stroke-width="3.2" stroke-linejoin="round"/><path d="M 36 58 L 64 58 M 35 76 L 65 76 M 34 94 L 66 94" stroke="#3A3128" stroke-width="2.4" stroke-linecap="round"/><circle cx="46" cy="66" r="2.6" fill="#FBF5DE" stroke="none" stroke-width="0"/><circle cx="54" cy="66" r="2.6" fill="#FBF5DE" stroke="none" stroke-width="0"/><path d="M 44 70 L 48 73 L 52 70 L 56 73" fill="none" stroke="#FBF5DE" stroke-width="2" stroke-linecap="round"/><circle cx="45" cy="84" r="2.6" fill="#FBF5DE" stroke="none" stroke-width="0"/><circle cx="55" cy="84" r="2.6" fill="#FBF5DE" stroke="none" stroke-width="0"/><path d="M 46 88 L 50 85 L 54 88" fill="none" stroke="#FBF5DE" stroke-width="2" stroke-linecap="round"/><circle cx="50" cy="104" r="3" fill="#FBF5DE" stroke="none" stroke-width="0"/><path d="M 50 40 Q 44 34 50 30 Q 56 34 50 40 Z" fill="#C4DECB" stroke="#3A3128" stroke-width="2"/><path d="M 12 60 Q 18 54 24 58 Q 20 64 12 60 Z" fill="#C4DECB" stroke="#3A3128" stroke-width="2.2" stroke-linejoin="round" opacity="0.85"/><circle cx="10" cy="52" r="1.8" fill="#2A2620" stroke="none" stroke-width="0"/><path d="M 88 66 Q 82 60 76 64 Q 80 70 88 66 Z" fill="#C4DECB" stroke="#3A3128" stroke-width="2.2" stroke-linejoin="round" opacity="0.85"/><circle cx="90" cy="60" r="1.8" fill="#2A2620" stroke="none" stroke-width="0"/><path d="M 20 92 Q 26 88 30 92 Q 26 96 20 92 Z" fill="#C4DECB" stroke="#3A3128" stroke-width="2" stroke-linejoin="round" opacity="0.7"/><path d="M 70 100 Q 76 96 80 100 Q 76 104 70 100 Z" fill="#C4DECB" stroke="#3A3128" stroke-width="2" stroke-linejoin="round" opacity="0.7"/></g><rect x="13" y="13" width="28" height="28" rx="9" fill="#275534" stroke="#3A3128" stroke-width="2.4"/><g transform="translate(27.0,27.0)"><path d="M 0 5.2360000000000015 C -5.902400000000001 1.9040000000000004 -5.2360000000000015 -4.760000000000001 0 -5.2360000000000015 C 5.2360000000000015 -4.760000000000001 5.902400000000001 1.9040000000000004 0 5.2360000000000015 Z" fill="#C4DECB" stroke="none" stroke-width="0"/><line x1="0" y1="3.81" x2="0" y2="-4.0" stroke="#00000042" stroke-width="0.86" stroke-linecap="round"/></g><circle cx="149.0" cy="27.0" r="14.0" fill="#B8404F" stroke="#3A3128" stroke-width="2.4"/><circle cx="149.0" cy="27.0" r="10.0" fill="none" stroke="#FFFFFF88" stroke-width="1.6"/><rect x="77.0" y="15" width="22" height="22" rx="7" fill="#2A2620" stroke="#3A3128" stroke-width="2" opacity="0.92"/><g transform="translate(88.0,26.0) scale(0.9)"><circle cx="0" cy="-1.5" r="5" fill="#F5C542" stroke="none" stroke-width="0"/><rect x="-3.2" y="1.5" width="6.4" height="3.4" rx="1.4" fill="#F5C542" stroke="none" stroke-width="0"/><circle cx="-2.2" cy="-2" r="1.5" fill="#00000066" stroke="none" stroke-width="0"/><circle cx="2.2" cy="-2" r="1.5" fill="#00000066" stroke="none" stroke-width="0"/></g><polygon points="69.0,20.8 70.6,24.8 74.9,25.1 71.6,27.8 72.6,32.0 69.0,29.7 65.4,32.0 66.4,27.8 63.1,25.1 67.4,24.8" fill="#FFF3C4" stroke="#8A5A0B" stroke-width="1.4" stroke-linejoin="round"/><polygon points="88.0,23.8 89.6,27.8 93.9,28.1 90.6,30.8 91.6,35.0 88.0,32.7 84.4,35.0 85.4,30.8 82.1,28.1 86.4,27.8" fill="#FFF3C4" stroke="#8A5A0B" stroke-width="1.4" stroke-linejoin="round"/><polygon points="107.0,20.8 108.6,24.8 112.9,25.1 109.6,27.8 110.6,32.0 107.0,29.7 103.4,32.0 104.4,27.8 101.1,25.1 105.4,24.8" fill="#FFF3C4" stroke="#8A5A0B" stroke-width="1.4" stroke-linejoin="round"/><rect x="11" y="132" width="154" height="33" rx="14" fill="#2A2620" opacity="0.93" stroke="#3A3128" stroke-width="2.2"/><g transform="translate(30,148.5) scale(0.92)"><path d="M 0 -8 L 2 -8 L 2 2 L 0 4 L -2 2 L -2 -8 Z" fill="#FFC46B" stroke="none" stroke-width="0"/><rect x="-3.5" y="2" width="7" height="2" rx="1" fill="#FFC46B" stroke="none" stroke-width="0"/><rect x="-1" y="4" width="2" height="5" rx="1" fill="#FFC46B" stroke="none" stroke-width="0"/><circle cx="0" cy="10" r="1.6" fill="#FFC46B" stroke="none" stroke-width="0"/></g><g transform="translate(146,148.5) scale(0.92)"><path d="M 0 8 C -8 2 -8 -5 -3.5 -5 C -1.5 -5 0 -3.5 0 -2 C 0 -3.5 1.5 -5 3.5 -5 C 8 -5 8 2 0 8 Z" fill="#FF8B8B" stroke="none" stroke-width="0"/></g></svg>
