<svg xmlns="http://www.w3.org/2000/svg" viewBox="0 0 176 176" width="176" height="176"><defs>
<linearGradient id="bgt33" x1="0" y1="0" x2="0" y2="1">
  <stop offset="0" stop-color="#DAD8D1"/><stop offset="1" stop-color="#F1EFE9"/>
</linearGradient>
<radialGradient id="glowt33" cx="0.5" cy="0.42" r="0.62">
  <stop offset="0" stop-color="#FFFFFF" stop-opacity="0.55"/><stop offset="1" stop-color="#FFFFFF" stop-opacity="0"/>
</radialGradient>
<linearGradient id="goldt33" x1="0" y1="0" x2="0" y2="1">
  <stop offset="0" stop-color="#FFE9A0"/><stop offset="0.55" stop-color="#F2C94C"/><stop offset="1" stop-color="#D19A1E"/>
</linearGradient>
</defs><rect x="5" y="5" width="166" height="166" rx="22" fill="url(#goldt33)" stroke="#8A5A0B" stroke-width="3.5"/><rect x="11" y="11" width="154" height="154" rx="17" fill="url(#bgt33)" stroke="#E8B84B" stroke-width="2"/><rect x="11" y="11" width="154" height="154" rx="17" fill="url(#glowt33)"/><g transform="translate(38,8)"><line x1="30" y1="0" x2="30" y2="60" stroke="#D9D2C0" stroke-width="1.6" opacity="0.9"/><line x1="70" y1="0" x2="70" y2="60" stroke="#D9D2C0" stroke-width="1.6" opacity="0.9"/><line x1="18" y1="0" x2="18" y2="92" stroke="#D9D2C0" stroke-width="1.6" opacity="0.9"/><line x1="82" y1="0" x2="82" y2="92" stroke="#D9D2C0" stroke-width="1.6" opacity="0.9"/><rect x="32" y="78" width="36" height="30" rx="8" fill="#C9A96E" stroke="#3A3128" stroke-width="3"/><g transform="translate(30,96) rotate(14)"><rect x="-6" y="-22" width="12" height="44" rx="5" fill="#F5F0E1" stroke="#3A3128" stroke-width="2.4"/><path d="M -6 -8 L 6 2 M 6 -14 L -6 -2 M -6 10 L 6 20" fill="none" stroke="#D9CFAF" stroke-width="2.4"/><path d="M 6 -18 q 6 -2 5 6" fill="none" stroke="#3A3128" stroke-width="2" stroke-linecap="round"/></g><circle cx="26" cy="80" r="4" fill="#C9A96E" stroke="#3A3128" stroke-width="2"/><circle cx="74" cy="80" r="4" fill="#C9A96E" stroke="#3A3128" stroke-width="2"/><circle cx="16" cy="94" r="6" fill="#C9A96E" stroke="#3A3128" stroke-width="2.4"/><circle cx="84" cy="94" r="6" fill="#C9A96E" stroke="#3A3128" stroke-width="2.4"/><circle cx="50" cy="52" r="21" fill="#D9BE8C" stroke="#3A3128" stroke-width="3"/><g transform="translate(50,44) rotate(-8)"><rect x="-21" y="-6" width="42" height="12" rx="4" fill="#F5F0E1" stroke="#3A3128" stroke-width="2.4"/><line x1="-21" y1="-2" x2="21" y2="4" stroke="#D9CFAF" stroke-width="1.8"/></g><g transform="translate(50,34) rotate(10)"><rect x="-10" y="-21" width="20" height="10" rx="4" fill="#F5F0E1" stroke="#3A3128" stroke-width="2.4"/></g><rect x="38" y="30" width="10" height="8" rx="2" fill="#C9A96E" stroke="#3A3128" stroke-width="1.8"/><circle cx="43" cy="54" r="5.5" fill="#F5F0E1" stroke="#3A3128" stroke-width="2.2"/><line x1="40" y1="51" x2="46" y2="57" stroke="#3A3128" stroke-width="2.2"/><line x1="46" y1="51" x2="40" y2="57" stroke="#3A3128" stroke-width="2.2"/><path d="M 54 50 l 6 6 M 60 50 l -6 6" fill="none" stroke="#3A3128" stroke-width="2.6" stroke-linecap="round"/><line x1="44" y1="64" x2="58" y2="64" stroke="#3A3128" stroke-width="2.4"/><line x1="47" y1="62" x2="47" y2="66" stroke="#3A3128" stroke-width="1.6"/><line x1="51" y1="62" x2="51" y2="66" stroke="#3A3128" stroke-width="1.6"/><line x1="55" y1="62" x2="55" y2="66" stroke="#3A3128" stroke-width="1.6"/><circle cx="50" cy="60" r="26" fill="#8FD06E" stroke="none" stroke-width="0" opacity="0.14"/></g><rect x="13" y="13" width="28" height="28" rx="9" fill="#5F5E59" stroke="#3A3128" stroke-width="2.4"/><g transform="translate(27.0,27.0)"><rect x="-3.62" y="-2.86" width="5.9" height="7.62" rx="0.76" fill="#DAD8D1" stroke="none" stroke-width="0"/><path d="M 2.2848 -1.1424 q 3.2368000000000006 0.5712 0.9520000000000002 3.2368000000000006" fill="none" stroke="#DAD8D1" stroke-width="1.33"/><circle cx="-2.09" cy="-3.24" r="1.33" fill="#DAD8D1" stroke="none" stroke-width="0"/><circle cx="-0.38" cy="-3.24" r="1.33" fill="#DAD8D1" stroke="none" stroke-width="0"/><circle cx="1.33" cy="-3.24" r="1.33" fill="#DAD8D1" stroke="none" stroke-width="0"/></g><circle cx="149.0" cy="27.0" r="14.0" fill="#A09C92" stroke="#3A3128" stroke-width="2.4"/><circle cx="149.0" cy="27.0" r="10.0" fill="none" stroke="#FFFFFF88" stroke-width="1.6"/><rect x="77.0" y="15" width="22" height="22" rx="7" fill="#2A2620" stroke="#3A3128" stroke-width="2" opacity="0.92"/><g transform="translate(88.0,26.0) scale(0.9)"><path d="M 4.5 -4.5 A 6 6 0 1 0 6 0" fill="none" stroke="#F5C542" stroke-width="2.2" stroke-linecap="round"/><polygon points="6,-5.5 6,0.5 1.5,-2.5" fill="#F5C542" stroke="none" stroke-width="0"/></g><polygon points="69.0,20.8 70.6,24.8 74.9,25.1 71.6,27.8 72.6,32.0 69.0,29.7 65.4,32.0 66.4,27.8 63.1,25.1 67.4,24.8" fill="#FFF3C4" stroke="#8A5A0B" stroke-width="1.4" stroke-linejoin="round"/><polygon points="88.0,23.8 89.6,27.8 93.9,28.1 90.6,30.8 91.6,35.0 88.0,32.7 84.4,35.0 85.4,30.8 82.1,28.1 86.4,27.8" fill="#FFF3C4" stroke="#8A5A0B" stroke-width="1.4" stroke-linejoin="round"/><polygon points="107.0,20.8 108.6,24.8 112.9,25.1 109.6,27.8 110.6,32.0 107.0,29.7 103.4,32.0 104.4,27.8 101.1,25.1 105.4,24.8" fill="#FFF3C4" stroke="#8A5A0B" stroke-width="1.4" stroke-linejoin="round"/><rect x="11" y="132" width="154" height="33" rx="14" fill="#2A2620" opacity="0.93" stroke="#3A3128" stroke-width="2.2"/><g transform="translate(30,148.5) scale(0.92)"><path d="M 0 -8 L 2 -8 L 2 2 L 0 4 L -2 2 L -2 -8 Z" fill="#FFC46B" stroke="none" stroke-width="0"/><rect x="-3.5" y="2" width="7" height="2" rx="1" fill="#FFC46B" stroke="none" stroke-width="0"/><rect x="-1" y="4" width="2" height="5" rx="1" fill="#FFC46B" stroke="none" stroke-width="0"/><circle cx="0" cy="10" r="1.6" fill="#FFC46B" stroke="none" stroke-width="0"/></g><g transform="translate(146,148.5) scale(0.92)"><path d="M 0 8 C -8 2 -8 -5 -3.5 -5 C -1.5 -5 0 -3.5 0 -2 C 0 -3.5 1.5 -5 3.5 -5 C 8 -5 8 2 0 8 Z" fill="#FF8B8B" stroke="none" stroke-width="0"/></g></svg>