<svg xmlns="http://www.w3.org/2000/svg" viewBox="0 0 176 176" width="176" height="176"><defs>
<linearGradient id="bgt0" x1="0" y1="0" x2="0" y2="1">
  <stop offset="0" stop-color="#DAD8D1"/><stop offset="1" stop-color="#F1EFE9"/>
</linearGradient>
<radialGradient id="glowt0" cx="0.5" cy="0.42" r="0.62">
  <stop offset="0" stop-color="#FFFFFF" stop-opacity="0.55"/><stop offset="1" stop-color="#FFFFFF" stop-opacity="0"/>
</radialGradient>
<linearGradient id="goldt0" x1="0" y1="0" x2="0" y2="1">
  <stop offset="0" stop-color="#FFE9A0"/><stop offset="0.55" stop-color="#F2C94C"/><stop offset="1" stop-color="#D19A1E"/>
</linearGradient>
</defs><rect x="5" y="5" width="166" height="166" rx="22" fill="url(#goldt0)" stroke="#8A5A0B" stroke-width="3.5"/><rect x="11" y="11" width="154" height="154" rx="17" fill="url(#bgt0)" stroke="#E8B84B" stroke-width="2"/><rect x="11" y="11" width="154" height="154" rx="17" fill="url(#glowt0)"/><g transform="translate(38,8)"><ellipse cx="50" cy="91.5" rx="16" ry="13.5" fill="#6B6963" stroke="#3A3128" stroke-width="3"/><circle cx="50" cy="46" r="23" fill="#C4C0B6" stroke="#3A3128" stroke-width="3"/><path d="M 30 34 L 70 34 L 64 24 L 36 24 Z" fill="#5F5E59" stroke="#3A3128" stroke-width="2.8" stroke-linejoin="round"/><path d="M 50 24 L 50 16" stroke="#3A3128" stroke-width="2.4"/><circle cx="42" cy="47" r="4" fill="#FFFFFF" stroke="none"/><circle cx="42" cy="47.6" r="2" fill="#3A3128" stroke="none"/><path d="M 45 59 q 5 4 10 0" fill="none" stroke="#3A3128" stroke-width="2.2" stroke-linecap="round"/><circle cx="58" cy="47" r="4" fill="#FFFFFF" stroke="none"/><circle cx="58" cy="47.6" r="2" fill="#3A3128" stroke="none"/><circle cx="59" cy="48" r="5.4" fill="none" stroke="#8A6E12" stroke-width="2"/><g transform="translate(50,86)"><rect x="-17" y="-9" width="34" height="18" rx="3" fill="#8A6E12" stroke="#3A3128" stroke-width="2.6"/><rect x="-13" y="-6" width="26" height="12" fill="#F1EDE0" stroke="#3A3128" stroke-width="1.6"/><line x1="-10.0" y1="-6" x2="-10.0" y2="6" stroke="#B8A468" stroke-width="1.4"/><circle cx="-10.0" cy="-1" r="2" fill="#C4653A" stroke="none"/><line x1="-3.4" y1="-6" x2="-3.4" y2="6" stroke="#B8A468" stroke-width="1.4"/><circle cx="-3.4" cy="2" r="2" fill="#C4653A" stroke="none"/><line x1="3.2" y1="-6" x2="3.2" y2="6" stroke="#B8A468" stroke-width="1.4"/><circle cx="3.2" cy="-1" r="2" fill="#C4653A" stroke="none"/><line x1="9.8" y1="-6" x2="9.8" y2="6" stroke="#B8A468" stroke-width="1.4"/><circle cx="9.8" cy="2" r="2" fill="#C4653A" stroke="none"/></g></g><circle cx="149.0" cy="27.0" r="14.0" fill="#4E86B8" stroke="#3A3128" stroke-width="2.4"/><circle cx="149.0" cy="27.0" r="10.0" fill="none" stroke="#FFFFFF88" stroke-width="1.6"/><polygon points="69.0,20.8 70.6,24.8 74.9,25.1 71.6,27.8 72.6,32.0 69.0,29.700000000000003 65.4,32.0 66.4,27.8 63.1,25.1 67.4,24.8" fill="#FFF3C4" stroke="#8A5A0B" stroke-width="1.4" stroke-linejoin="round"/><polygon points="88.0,23.8 89.6,27.8 93.9,28.1 90.6,30.8 91.6,35.0 88.0,32.7 84.4,35.0 85.4,30.8 82.1,28.1 86.4,27.8" fill="#FFF3C4" stroke="#8A5A0B" stroke-width="1.4" stroke-linejoin="round"/><polygon points="107.0,20.8 108.6,24.8 112.9,25.1 109.6,27.8 110.6,32.0 107.0,29.700000000000003 103.4,32.0 104.4,27.8 101.1,25.1 105.4,24.8" fill="#FFF3C4" stroke="#8A5A0B" stroke-width="1.4" stroke-linejoin="round"/><rect x="11" y="132" width="154" height="33" rx="14" fill="#2A2620" opacity="0.93" stroke="#3A3128" stroke-width="2.2"/><g transform="translate(30,148.5) scale(0.92)"><path d="M 0 -8 L 2 -8 L 2 2 L 0 4 L -2 2 L -2 -8 Z" fill="#FFC46B" stroke="none" stroke-width="0"/><rect x="-3.5" y="2" width="7" height="2" rx="1" fill="#FFC46B" stroke="none" stroke-width="0"/><rect x="-1" y="4" width="2" height="5" rx="1" fill="#FFC46B" stroke="none" stroke-width="0"/><circle cx="0" cy="10" r="1.6" fill="#FFC46B" stroke="none" stroke-width="0"/></g><g transform="translate(146,148.5) scale(0.92)"><path d="M 0 8 C -8 2 -8 -5 -3.5 -5 C -1.5 -5 0 -3.5 0 -2 C 0 -3.5 1.5 -5 3.5 -5 C 8 -5 8 2 0 8 Z" fill="#FF8B8B" stroke="none" stroke-width="0"/></g></svg>