<svg xmlns="http://www.w3.org/2000/svg" viewBox="0 0 176 176" width="176" height="176"><defs>
<linearGradient id="bgc15" x1="0" y1="0" x2="0" y2="1">
  <stop offset="0" stop-color="#C4DECB"/><stop offset="1" stop-color="#E8F3EB"/>
</linearGradient>
<radialGradient id="glowc15" cx="0.5" cy="0.42" r="0.62">
  <stop offset="0" stop-color="#FFFFFF" stop-opacity="0.55"/><stop offset="1" stop-color="#FFFFFF" stop-opacity="0"/>
</radialGradient>
<linearGradient id="goldc15" x1="0" y1="0" x2="0" y2="1">
  <stop offset="0" stop-color="#FFE9A0"/><stop offset="0.55" stop-color="#F2C94C"/><stop offset="1" stop-color="#D19A1E"/>
</linearGradient>
</defs><rect x="5" y="5" width="166" height="166" rx="22" fill="#275534" stroke="#3A3128" stroke-width="3.5"/><rect x="11" y="11" width="154" height="154" rx="17" fill="url(#bgc15)" stroke="#3E7C4F" stroke-width="2"/><ellipse cx="88" cy="64" rx="62" ry="52" fill="url(#glowc15)"/><g transform="translate(38,8)"><line x1="34" y1="0" x2="34" y2="56" stroke="#E9E4D4" stroke-width="2" opacity="0.9"/><path d="M 20 70 Q 8 74 4 84" fill="none" stroke="#3A3128" stroke-width="3.4" stroke-linecap="round"/><path d="M 14 82 Q 2 86 -2 96" fill="none" stroke="#3A3128" stroke-width="3.4" stroke-linecap="round"/><path d="M 20 94 Q 8 98 4 108" fill="none" stroke="#3A3128" stroke-width="3.4" stroke-linecap="round"/><path d="M 80 70 Q 92 74 96 84" fill="none" stroke="#3A3128" stroke-width="3.4" stroke-linecap="round"/><path d="M 86 82 Q 98 86 102 96" fill="none" stroke="#3A3128" stroke-width="3.4" stroke-linecap="round"/><path d="M 80 94 Q 92 98 96 108" fill="none" stroke="#3A3128" stroke-width="3.4" stroke-linecap="round"/><circle cx="60" cy="82" r="26" fill="#6FA97E" stroke="#3A3128" stroke-width="3"/><circle cx="51" cy="76" r="4.2" fill="#F0E6C8" stroke="#3A3128" stroke-width="1.8"/><circle cx="64" cy="72" r="4.2" fill="#F0E6C8" stroke="#3A3128" stroke-width="1.8"/><circle cx="72" cy="84" r="4.2" fill="#F0E6C8" stroke="#3A3128" stroke-width="1.8"/><circle cx="56" cy="90" r="4.2" fill="#F0E6C8" stroke="#3A3128" stroke-width="1.8"/><circle cx="46" cy="88" r="4.2" fill="#F0E6C8" stroke="#3A3128" stroke-width="1.8"/><circle cx="68" cy="96" r="4.2" fill="#F0E6C8" stroke="#3A3128" stroke-width="1.8"/><circle cx="58" cy="80" r="4.2" fill="#F0E6C8" stroke="#3A3128" stroke-width="1.8"/><circle cx="30" cy="64" r="16" fill="#5C8F6B" stroke="#3A3128" stroke-width="3"/><circle cx="24" cy="60" r="3.4" fill="#3A3128" stroke="none" stroke-width="0"/><circle cx="32" cy="58" r="4.2" fill="#3A3128" stroke="none" stroke-width="0"/><circle cx="39" cy="61" r="3" fill="#3A3128" stroke="none" stroke-width="0"/><circle cx="33" cy="66" r="2.4" fill="#3A3128" stroke="none" stroke-width="0"/><circle cx="31.4" cy="56.6" r="1.2" fill="#FFFFFF" stroke="none" stroke-width="0"/><path d="M 26 72 q 4 4 8 0" fill="none" stroke="#3A3128" stroke-width="2.2" stroke-linecap="round"/><polygon points="27,72.5 26,77 29,73.5" fill="#F5F0E1" stroke="#3A3128" stroke-width="1.4" stroke-linejoin="round"/></g><rect x="13" y="13" width="28" height="28" rx="9" fill="#275534" stroke="#3A3128" stroke-width="2.4"/><g transform="translate(27.0,27.0)"><path d="M 0 5.2360000000000015 C -5.902400000000001 1.9040000000000004 -5.2360000000000015 -4.760000000000001 0 -5.2360000000000015 C 5.2360000000000015 -4.760000000000001 5.902400000000001 1.9040000000000004 0 5.2360000000000015 Z" fill="#C4DECB" stroke="none" stroke-width="0"/><line x1="0" y1="3.81" x2="0" y2="-4.0" stroke="#00000042" stroke-width="0.86" stroke-linecap="round"/></g><circle cx="149.0" cy="27.0" r="14.0" fill="#4E8B5E" stroke="#3A3128" stroke-width="2.4"/><circle cx="149.0" cy="27.0" r="10.0" fill="none" stroke="#FFFFFF88" stroke-width="1.6"/><rect x="77.0" y="15" width="22" height="22" rx="7" fill="#2A2620" stroke="#3A3128" stroke-width="2" opacity="0.92"/><g transform="translate(88.0,26.0) scale(0.9)"><circle cx="0" cy="-1.5" r="5" fill="#F5C542" stroke="none" stroke-width="0"/><rect x="-3.2" y="1.5" width="6.4" height="3.4" rx="1.4" fill="#F5C542" stroke="none" stroke-width="0"/><circle cx="-2.2" cy="-2" r="1.5" fill="#00000066" stroke="none" stroke-width="0"/><circle cx="2.2" cy="-2" r="1.5" fill="#00000066" stroke="none" stroke-width="0"/></g><rect x="11" y="132" width="154" height="33" rx="14" fill="#2A2620" opacity="0.93" stroke="#3A3128" stroke-width="2.2"/><g transform="translate(30,148.5) scale(0.92)"><path d="M 0 -8 L 2 -8 L 2 2 L 0 4 L -2 2 L -2 -8 Z" fill="#FFC46B" stroke="none" stroke-width="0"/><rect x="-3.5" y="2" width="7" height="2" rx="1" fill="#FFC46B" stroke="none" stroke-width="0"/><rect x="-1" y="4" width="2" height="5" rx="1" fill="#FFC46B" stroke="none" stroke-width="0"/><circle cx="0" cy="10" r="1.6" fill="#FFC46B" stroke="none" stroke-width="0"/></g><g transform="translate(146,148.5) scale(0.92)"><path d="M 0 8 C -8 2 -8 -5 -3.5 -5 C -1.5 -5 0 -3.5 0 -2 C 0 -3.5 1.5 -5 3.5 -5 C 8 -5 8 2 0 8 Z" fill="#FF8B8B" stroke="none" stroke-width="0"/></g></svg>