<svg xmlns="http://www.w3.org/2000/svg" viewBox="0 0 176 176" width="176" height="176"><defs>
<linearGradient id="bgc19" x1="0" y1="0" x2="0" y2="1">
  <stop offset="0" stop-color="#C4DECB"/><stop offset="1" stop-color="#E8F3EB"/>
</linearGradient>
<radialGradient id="glowc19" cx="0.5" cy="0.42" r="0.62">
  <stop offset="0" stop-color="#FFFFFF" stop-opacity="0.55"/><stop offset="1" stop-color="#FFFFFF" stop-opacity="0"/>
</radialGradient>
<linearGradient id="goldc19" x1="0" y1="0" x2="0" y2="1">
  <stop offset="0" stop-color="#FFE9A0"/><stop offset="0.55" stop-color="#F2C94C"/><stop offset="1" stop-color="#D19A1E"/>
</linearGradient>
</defs><rect x="5" y="5" width="166" height="166" rx="22" fill="#275534" stroke="#3A3128" stroke-width="3.5"/><rect x="11" y="11" width="154" height="154" rx="17" fill="url(#bgc19)" stroke="#3E7C4F" stroke-width="2"/><ellipse cx="88" cy="64" rx="62" ry="52" fill="url(#glowc19)"/><g transform="translate(38,8)"><ellipse cx="50" cy="78" rx="32" ry="26" fill="#8A6642" stroke="#3A3128" stroke-width="3"/><path d="M 20 68 L 26 56 L 32 64 L 38 52 L 44 62 L 50 50 L 56 62 L 62 52 L 68 64 L 74 56 L 80 68 Q 50 56 20 68 Z" fill="#6B4F33" stroke="#3A3128" stroke-width="2.6" stroke-linejoin="round"/><circle cx="50" cy="54" r="24" fill="#9A7A4E" stroke="#3A3128" stroke-width="3"/><ellipse cx="24" cy="50" rx="6" ry="8" fill="#8A6642" stroke="#3A3128" stroke-width="2.4"/><ellipse cx="76" cy="50" rx="6" ry="8" fill="#8A6642" stroke="#3A3128" stroke-width="2.4"/><circle cx="39" cy="50" r="3.2" fill="#3A3128" stroke="none" stroke-width="0"/><circle cx="38.04" cy="48.88" r="1.02" fill="#FFFFFF" stroke="none" stroke-width="0"/><circle cx="61" cy="50" r="3.2" fill="#3A3128" stroke="none" stroke-width="0"/><circle cx="60.04" cy="48.88" r="1.02" fill="#FFFFFF" stroke="none" stroke-width="0"/><path d="M 34 43 L 43 47" fill="none" stroke="#3A3128" stroke-width="2.8" stroke-linecap="round"/><path d="M 66 43 L 57 47" fill="none" stroke="#3A3128" stroke-width="2.8" stroke-linecap="round"/><path d="M 50 60 Q 46 74 40 82 Q 42 92 52 96 Q 58 94 56 88 Q 50 84 50 76 Q 54 68 52 60 Z" fill="#9A7A4E" stroke="#3A3128" stroke-width="2.8" stroke-linejoin="round"/><path d="M 34 60 Q 24 82 34 94 Q 40 82 40 66 Z" fill="#F5F0E1" stroke="#3A3128" stroke-width="2.8" stroke-linejoin="round"/><path d="M 66 60 Q 76 82 66 94 Q 60 82 60 66 Z" fill="#F5F0E1" stroke="#3A3128" stroke-width="2.8" stroke-linejoin="round"/><rect x="30" y="98" width="12" height="14" rx="5" fill="#6B4F33" stroke="#3A3128" stroke-width="3"/><rect x="58" y="98" width="12" height="14" rx="5" fill="#6B4F33" stroke="#3A3128" stroke-width="3"/><path d="M 8 116 L 22 108 L 20 118 L 34 110" fill="none" stroke="#3A2E20" stroke-width="2.8" stroke-linecap="round" stroke-linejoin="round"/><path d="M 92 116 L 78 108 L 80 118 L 66 110" fill="none" stroke="#3A2E20" stroke-width="2.8" stroke-linecap="round" stroke-linejoin="round"/><path d="M 50 122 L 44 112 L 56 112 Z" fill="#3A2E20" stroke="none" stroke-width="0" opacity="0.5"/></g><rect x="13" y="13" width="28" height="28" rx="9" fill="#275534" stroke="#3A3128" stroke-width="2.4"/><g transform="translate(27.0,27.0)"><path d="M 0 5.2360000000000015 C -5.902400000000001 1.9040000000000004 -5.2360000000000015 -4.760000000000001 0 -5.2360000000000015 C 5.2360000000000015 -4.760000000000001 5.902400000000001 1.9040000000000004 0 5.2360000000000015 Z" fill="#C4DECB" stroke="none" stroke-width="0"/><line x1="0" y1="3.81" x2="0" y2="-4.0" stroke="#00000042" stroke-width="0.86" stroke-linecap="round"/></g><circle cx="149.0" cy="27.0" r="14.0" fill="#4E86B8" stroke="#3A3128" stroke-width="2.4"/><circle cx="149.0" cy="27.0" r="10.0" fill="none" stroke="#FFFFFF88" stroke-width="1.6"/><rect x="77.0" y="15" width="22" height="22" rx="7" fill="#2A2620" stroke="#3A3128" stroke-width="2" opacity="0.92"/><g transform="translate(88.0,26.0) scale(0.9)"><g transform="rotate(-35)"><line x1="0" y1="5" x2="0" y2="-6.5" stroke="#F5C542" stroke-width="2.2" stroke-linecap="round"/><circle cx="0" cy="-6.5" r="1.4" fill="#F5C542" stroke="none" stroke-width="0"/></g><g transform="rotate(0)"><line x1="0" y1="5" x2="0" y2="-6.5" stroke="#F5C542" stroke-width="2.2" stroke-linecap="round"/><circle cx="0" cy="-6.5" r="1.4" fill="#F5C542" stroke="none" stroke-width="0"/></g><g transform="rotate(35)"><line x1="0" y1="5" x2="0" y2="-6.5" stroke="#F5C542" stroke-width="2.2" stroke-linecap="round"/><circle cx="0" cy="-6.5" r="1.4" fill="#F5C542" stroke="none" stroke-width="0"/></g></g><rect x="11" y="132" width="154" height="33" rx="14" fill="#2A2620" opacity="0.93" stroke="#3A3128" stroke-width="2.2"/><g transform="translate(30,148.5) scale(0.92)"><path d="M 0 -8 L 2 -8 L 2 2 L 0 4 L -2 2 L -2 -8 Z" fill="#FFC46B" stroke="none" stroke-width="0"/><rect x="-3.5" y="2" width="7" height="2" rx="1" fill="#FFC46B" stroke="none" stroke-width="0"/><rect x="-1" y="4" width="2" height="5" rx="1" fill="#FFC46B" stroke="none" stroke-width="0"/><circle cx="0" cy="10" r="1.6" fill="#FFC46B" stroke="none" stroke-width="0"/></g><g transform="translate(146,148.5) scale(0.92)"><path d="M 0 8 C -8 2 -8 -5 -3.5 -5 C -1.5 -5 0 -3.5 0 -2 C 0 -3.5 1.5 -5 3.5 -5 C 8 -5 8 2 0 8 Z" fill="#FF8B8B" stroke="none" stroke-width="0"/></g></svg>