<svg xmlns="http://www.w3.org/2000/svg" viewBox="0 0 176 176" width="176" height="176"><defs>
<linearGradient id="bgc66" x1="0" y1="0" x2="0" y2="1">
  <stop offset="0" stop-color="#C4DECB"/><stop offset="1" stop-color="#E8F3EB"/>
</linearGradient>
<radialGradient id="glowc66" cx="0.5" cy="0.42" r="0.62">
  <stop offset="0" stop-color="#FFFFFF" stop-opacity="0.55"/><stop offset="1" stop-color="#FFFFFF" stop-opacity="0"/>
</radialGradient>
<linearGradient id="goldc66" x1="0" y1="0" x2="0" y2="1">
  <stop offset="0" stop-color="#FFE9A0"/><stop offset="0.55" stop-color="#F2C94C"/><stop offset="1" stop-color="#D19A1E"/>
</linearGradient>
</defs><rect x="5" y="5" width="166" height="166" rx="22" fill="#275534" stroke="#3A3128" stroke-width="3.5"/><rect x="11" y="11" width="154" height="154" rx="17" fill="url(#bgc66)" stroke="#3E7C4F" stroke-width="2"/><ellipse cx="88" cy="64" rx="62" ry="52" fill="url(#glowc66)"/><g transform="translate(38,8)"><ellipse cx="52" cy="119" rx="28" ry="6" fill="#1E3D26" stroke="none" stroke-width="0" opacity="0.2"/><path d="M 48 82 Q 60 66 56 44 Q 52 28 34 26 Q 44 20 56 26 Q 72 34 68 60 Q 66 74 58 84 Z" fill="#7A5230" stroke="#3A3128" stroke-width="3" stroke-linejoin="round"/><path d="M 56 30 Q 70 12 88 14 Q 84 26 74 30 Q 82 34 92 32 Q 86 44 72 42 Q 62 40 58 34 Z" fill="#8B6B4A" stroke="#3A3128" stroke-width="3" stroke-linejoin="round"/><path d="M 50 46 Q 34 40 24 48 Q 16 56 26 62 Q 36 66 46 58 Z" fill="#8B6B4A" stroke="#3A3128" stroke-width="3" stroke-linejoin="round"/><path d="M 30 46 Q 24 34 30 24 M 22 52 Q 12 46 10 36" fill="none" stroke="#DFF0E3" stroke-width="3" stroke-linecap="round" opacity="0.9"/><path d="M 36 52 Q 30 44 36 38" fill="none" stroke="#DFF0E3" stroke-width="2.4" stroke-linecap="round" opacity="0.7"/><path d="M 40 56 L 66 56 L 62 66 L 44 66 Z" fill="#F5C542" stroke="#3A3128" stroke-width="2.4" stroke-linejoin="round"/><circle cx="46" cy="60" r="2" fill="#3A3128" stroke="none" stroke-width="0"/><circle cx="44" cy="48" r="3.4" fill="#FBF5DE" stroke="#3A3128" stroke-width="1.8"/><circle cx="44.6" cy="48.6" r="1.5" fill="#2A2620" stroke="none" stroke-width="0"/><path d="M 38 44 L 46 42" stroke="#3A3128" stroke-width="2" stroke-linecap="round"/><path d="M 56 78 Q 50 88 56 96 Q 62 102 70 96 L 64 92 Q 70 90 68 84 L 60 86 Q 62 80 56 78 Z" fill="#8B6B4A" stroke="#3A3128" stroke-width="2.6" stroke-linejoin="round"/><path d="M 30 84 Q 36 80 42 84 M 26 100 Q 32 96 38 100" fill="none" stroke="#C4DECB" stroke-width="2.2" stroke-linecap="round" opacity="0.8"/></g><rect x="13" y="13" width="28" height="28" rx="9" fill="#275534" stroke="#3A3128" stroke-width="2.4"/><g transform="translate(27.0,27.0)"><path d="M 0 5.2360000000000015 C -5.902400000000001 1.9040000000000004 -5.2360000000000015 -4.760000000000001 0 -5.2360000000000015 C 5.2360000000000015 -4.760000000000001 5.902400000000001 1.9040000000000004 0 5.2360000000000015 Z" fill="#C4DECB" stroke="none" stroke-width="0"/><line x1="0" y1="3.81" x2="0" y2="-4.0" stroke="#00000042" stroke-width="0.86" stroke-linecap="round"/></g><circle cx="149.0" cy="27.0" r="14.0" fill="#C97724" stroke="#3A3128" stroke-width="2.4"/><circle cx="149.0" cy="27.0" r="10.0" fill="none" stroke="#FFFFFF88" stroke-width="1.6"/><rect x="63.5" y="15" width="22" height="22" rx="7" fill="#2A2620" stroke="#3A3128" stroke-width="2" opacity="0.92"/><g transform="translate(74.5,26.0) scale(0.9)"><path d="M -7 -5 L -1.5 0 L -7 5" fill="none" stroke="#F5C542" stroke-width="2.4" stroke-linecap="round" stroke-linejoin="round"/><path d="M 0.5 -5 L 6 0 L 0.5 5" fill="none" stroke="#F5C542" stroke-width="2.4" stroke-linecap="round" stroke-linejoin="round"/></g><rect x="90.5" y="15" width="22" height="22" rx="7" fill="#2A2620" stroke="#3A3128" stroke-width="2" opacity="0.92"/><g transform="translate(101.5,26.0) scale(0.9)"><circle cx="0" cy="-1.5" r="5" fill="#F5C542" stroke="none" stroke-width="0"/><rect x="-3.2" y="1.5" width="6.4" height="3.4" rx="1.4" fill="#F5C542" stroke="none" stroke-width="0"/><circle cx="-2.2" cy="-2" r="1.5" fill="#00000066" stroke="none" stroke-width="0"/><circle cx="2.2" cy="-2" r="1.5" fill="#00000066" stroke="none" stroke-width="0"/></g><rect x="11" y="132" width="154" height="33" rx="14" fill="#2A2620" opacity="0.93" stroke="#3A3128" stroke-width="2.2"/><g transform="translate(30,148.5) scale(0.92)"><path d="M 0 -8 L 2 -8 L 2 2 L 0 4 L -2 2 L -2 -8 Z" fill="#FFC46B" stroke="none" stroke-width="0"/><rect x="-3.5" y="2" width="7" height="2" rx="1" fill="#FFC46B" stroke="none" stroke-width="0"/><rect x="-1" y="4" width="2" height="5" rx="1" fill="#FFC46B" stroke="none" stroke-width="0"/><circle cx="0" cy="10" r="1.6" fill="#FFC46B" stroke="none" stroke-width="0"/></g><g transform="translate(146,148.5) scale(0.92)"><path d="M 0 8 C -8 2 -8 -5 -3.5 -5 C -1.5 -5 0 -3.5 0 -2 C 0 -3.5 1.5 -5 3.5 -5 C 8 -5 8 2 0 8 Z" fill="#FF8B8B" stroke="none" stroke-width="0"/></g></svg>
