<svg xmlns="http://www.w3.org/2000/svg" viewBox="0 0 176 176" width="176" height="176"><defs>
<linearGradient id="bgg0" x1="0" y1="0" x2="0" y2="1">
  <stop offset="0" stop-color="#F4E3AC"/><stop offset="1" stop-color="#FBF5DE"/>
</linearGradient>
<radialGradient id="glowg0" cx="0.5" cy="0.42" r="0.62">
  <stop offset="0" stop-color="#FFFFFF" stop-opacity="0.55"/><stop offset="1" stop-color="#FFFFFF" stop-opacity="0"/>
</radialGradient>
<linearGradient id="goldg0" x1="0" y1="0" x2="0" y2="1">
  <stop offset="0" stop-color="#FFE9A0"/><stop offset="0.55" stop-color="#F2C94C"/><stop offset="1" stop-color="#D19A1E"/>
</linearGradient>
</defs><rect x="5" y="5" width="166" height="166" rx="22" fill="url(#goldg0)" stroke="#8A5A0B" stroke-width="3.5"/><rect x="11" y="11" width="154" height="154" rx="17" fill="url(#bgg0)" stroke="#E8B84B" stroke-width="2"/><rect x="11" y="11" width="154" height="154" rx="17" fill="url(#glowg0)"/><g transform="translate(38,8)"><ellipse cx="50" cy="90.0" rx="16" ry="14.0" fill="#9B8A6B" stroke="#3A3128" stroke-width="3"/><circle cx="50" cy="46" r="24" fill="#D9C9A8" stroke="#3A3128" stroke-width="3"/><circle cx="42" cy="47" r="4.5" fill="#FFFFFF" stroke="none"/><circle cx="42" cy="47.6" r="2.2" fill="#3A3128" stroke="none"/><circle cx="58" cy="47" r="4.5" fill="#FFFFFF" stroke="none"/><circle cx="58" cy="47.6" r="2.2" fill="#3A3128" stroke="none"/><path d="M 43 58 q 7 4 14 0" fill="none" stroke="#3A3128" stroke-width="2.2" stroke-linecap="round"/><rect x="36" y="22" width="28" height="7" rx="3" fill="#8A6E12" stroke="#3A3128" stroke-width="2.6"/><g transform="translate(50,10)"><circle r="7.5" fill="#4A4640" stroke="#3A3128" stroke-width="2.6"/><path d="M 2 -7 Q 7 -14 12 -12" fill="none" stroke="#B08A5A" stroke-width="2.2"/><circle cx="12.5" cy="-12.5" r="2.2" fill="#FF8B4A" stroke="#3A3128" stroke-width="1.4"/></g></g><circle cx="149.0" cy="27.0" r="14.0" fill="#4E8B5E" stroke="#3A3128" stroke-width="2.4"/><circle cx="149.0" cy="27.0" r="10.0" fill="none" stroke="#FFFFFF88" stroke-width="1.6"/><rect x="63.5" y="15" width="22" height="22" rx="7" fill="#2A2620" stroke="#3A3128" stroke-width="2" opacity="0.92"/><polygon points="78.5,20.8 80.1,24.8 84.4,25.1 81.1,27.8 82.1,32.0 78.5,29.700000000000003 74.9,32.0 75.9,27.8 72.6,25.1 76.9,24.8" fill="#FFF3C4" stroke="#8A5A0B" stroke-width="1.4" stroke-linejoin="round"/><polygon points="97.5,23.8 99.1,27.8 103.4,28.1 100.1,30.8 101.1,35.0 97.5,32.7 93.9,35.0 94.9,30.8 91.6,28.1 95.9,27.8" fill="#FFF3C4" stroke="#8A5A0B" stroke-width="1.4" stroke-linejoin="round"/><rect x="11" y="132" width="154" height="33" rx="14" fill="#2A2620" opacity="0.93" stroke="#3A3128" stroke-width="2.2"/><g transform="translate(30,148.5) scale(0.92)"><path d="M 0 -8 L 2 -8 L 2 2 L 0 4 L -2 2 L -2 -8 Z" fill="#FFC46B" stroke="none" stroke-width="0"/><rect x="-3.5" y="2" width="7" height="2" rx="1" fill="#FFC46B" stroke="none" stroke-width="0"/><rect x="-1" y="4" width="2" height="5" rx="1" fill="#FFC46B" stroke="none" stroke-width="0"/><circle cx="0" cy="10" r="1.6" fill="#FFC46B" stroke="none" stroke-width="0"/></g><g transform="translate(146,148.5) scale(0.92)"><path d="M 0 8 C -8 2 -8 -5 -3.5 -5 C -1.5 -5 0 -3.5 0 -2 C 0 -3.5 1.5 -5 3.5 -5 C 8 -5 8 2 0 8 Z" fill="#FF8B8B" stroke="none" stroke-width="0"/></g></svg>