<svg xmlns="http://www.w3.org/2000/svg" viewBox="0 0 176 176" width="176" height="176"><defs>
<linearGradient id="bgg77" x1="0" y1="0" x2="0" y2="1">
  <stop offset="0" stop-color="#BCD5EA"/><stop offset="1" stop-color="#E4EFF8"/>
</linearGradient>
<radialGradient id="glowg77" cx="0.5" cy="0.42" r="0.62">
  <stop offset="0" stop-color="#FFFFFF" stop-opacity="0.55"/><stop offset="1" stop-color="#FFFFFF" stop-opacity="0"/>
</radialGradient>
<linearGradient id="goldg77" x1="0" y1="0" x2="0" y2="1">
  <stop offset="0" stop-color="#FFE9A0"/><stop offset="0.55" stop-color="#F2C94C"/><stop offset="1" stop-color="#D19A1E"/>
</linearGradient>
</defs><rect x="5" y="5" width="166" height="166" rx="22" fill="url(#goldg77)" stroke="#8A5A0B" stroke-width="3.5"/><rect x="11" y="11" width="154" height="154" rx="17" fill="url(#bgg77)" stroke="#E8B84B" stroke-width="2"/><rect x="11" y="11" width="154" height="154" rx="17" fill="url(#glowg77)"/><g transform="translate(38,8)"><ellipse cx="50" cy="119" rx="32" ry="6" fill="#16324E" stroke="none" stroke-width="0" opacity="0.24"/><path d="M 8 96 Q 4 74 20 62 Q 16 44 34 40 Q 30 28 46 30 Q 44 20 54 24 Q 64 18 70 30 Q 86 32 82 46 Q 96 54 90 70 Q 98 82 88 94" fill="#254B70" stroke="#3A3128" stroke-width="3" stroke-linejoin="round"/><path d="M 20 66 Q 26 58 34 62 M 70 56 Q 78 52 82 60" fill="none" stroke="#3A6EA5" stroke-width="2.4" stroke-linecap="round" opacity="0.9"/><path d="M 26 112 L 28 84 Q 28 74 38 72 L 62 72 Q 72 74 72 84 L 74 112 Z" fill="#2C5580" stroke="#3A3128" stroke-width="3.2" stroke-linejoin="round"/><path d="M 34 86 Q 44 82 50 86 Q 56 90 66 86" fill="none" stroke="#3A6EA5" stroke-width="2.6" stroke-linecap="round"/><path d="M 36 96 Q 44 92 50 96 Q 56 100 64 96" fill="none" stroke="#3A6EA5" stroke-width="2" stroke-linecap="round" opacity="0.8"/><circle cx="50" cy="46" r="17" fill="#2C5580" stroke="#3A3128" stroke-width="3.2"/><path d="M 33 40 Q 30 30 40 28 Q 42 20 50 22 Q 58 20 60 28 Q 70 30 67 40 Q 50 34 33 40 Z" fill="#BCD5EA" stroke="#3A3128" stroke-width="2.8" stroke-linejoin="round"/><path d="M 40 30 L 40 22 L 44 28 L 50 20 L 56 28 L 60 22 L 60 30" fill="none" stroke="#DCEFF8" stroke-width="2.2" stroke-linecap="round" stroke-linejoin="round"/><circle cx="44" cy="46" r="3" fill="#FBF5DE" stroke="#3A3128" stroke-width="2"/><circle cx="44.7" cy="46.7" r="1.4" fill="#2A2620" stroke="none" stroke-width="0"/><circle cx="56" cy="46" r="3" fill="#FBF5DE" stroke="#3A3128" stroke-width="2"/><circle cx="56.7" cy="46.7" r="1.4" fill="#2A2620" stroke="none" stroke-width="0"/><path d="M 44 56 Q 50 60 56 56" fill="none" stroke="#2A2620" stroke-width="2.2" stroke-linecap="round"/><path d="M 72 108 Q 80 104 82 96" fill="none" stroke="#3A3128" stroke-width="3.4" stroke-linecap="round"/><path d="M 82 34 L 82 96" stroke="#7A5230" stroke-width="3.6" stroke-linecap="round"/><path d="M 82 34 Q 76 34 76 28 M 82 34 Q 88 34 88 28 M 82 34 L 82 24" stroke="#DCEFF8" stroke-width="3" stroke-linecap="round"/><circle cx="82" cy="22" r="2.2" fill="#DCEFF8" stroke="none" stroke-width="0"/></g><rect x="13" y="13" width="28" height="28" rx="9" fill="#254B70" stroke="#3A3128" stroke-width="2.4"/><g transform="translate(27.0,27.0)"><path d="M -5.712000000000001 -1.7136000000000002 q 2.8560000000000003 -3.2368000000000006 5.712000000000001 0 q 2.8560000000000003 3.2368000000000006 5.712000000000001 0" fill="none" stroke="#BCD5EA" stroke-width="1.52" stroke-linecap="round"/><path d="M -5.712000000000001 2.8560000000000003 q 2.8560000000000003 -3.2368000000000006 5.712000000000001 0 q 2.8560000000000003 3.2368000000000006 5.712000000000001 0" fill="none" stroke="#BCD5EA" stroke-width="1.52" stroke-linecap="round"/></g><circle cx="149.0" cy="27.0" r="14.0" fill="#B8404F" stroke="#3A3128" stroke-width="2.4"/><circle cx="149.0" cy="27.0" r="10.0" fill="none" stroke="#FFFFFF88" stroke-width="1.6"/><rect x="77.0" y="15" width="22" height="22" rx="7" fill="#2A2620" stroke="#3A3128" stroke-width="2" opacity="0.92"/><g transform="translate(88.0,26.0) scale(0.9)"><path d="M -6 -6 h 12 v 8 h -6 l -3 3 v -3 h -3 z" fill="#F5C542" stroke="none" stroke-width="0"/><circle cx="-2.5" cy="-2" r="1.2" fill="#00000055" stroke="none" stroke-width="0"/><circle cx="0.5" cy="-2" r="1.2" fill="#00000055" stroke="none" stroke-width="0"/><circle cx="3.5" cy="-2" r="1.2" fill="#00000055" stroke="none" stroke-width="0"/></g><polygon points="78.5,20.8 80.1,24.8 84.4,25.1 81.1,27.8 82.1,32.0 78.5,29.7 74.9,32.0 75.9,27.8 72.6,25.1 76.9,24.8" fill="#FFF3C4" stroke="#8A5A0B" stroke-width="1.4" stroke-linejoin="round"/><polygon points="97.5,23.8 99.1,27.8 103.4,28.1 100.1,30.8 101.1,35.0 97.5,32.7 93.9,35.0 94.9,30.8 91.6,28.1 95.9,27.8" fill="#FFF3C4" stroke="#8A5A0B" stroke-width="1.4" stroke-linejoin="round"/><rect x="11" y="132" width="154" height="33" rx="14" fill="#2A2620" opacity="0.93" stroke="#3A3128" stroke-width="2.2"/><g transform="translate(30,148.5) scale(0.92)"><path d="M 0 -8 L 2 -8 L 2 2 L 0 4 L -2 2 L -2 -8 Z" fill="#FFC46B" stroke="none" stroke-width="0"/><rect x="-3.5" y="2" width="7" height="2" rx="1" fill="#FFC46B" stroke="none" stroke-width="0"/><rect x="-1" y="4" width="2" height="5" rx="1" fill="#FFC46B" stroke="none" stroke-width="0"/><circle cx="0" cy="10" r="1.6" fill="#FFC46B" stroke="none" stroke-width="0"/></g><g transform="translate(146,148.5) scale(0.92)"><path d="M 0 8 C -8 2 -8 -5 -3.5 -5 C -1.5 -5 0 -3.5 0 -2 C 0 -3.5 1.5 -5 3.5 -5 C 8 -5 8 2 0 8 Z" fill="#FF8B8B" stroke="none" stroke-width="0"/></g></svg>
