<svg xmlns="http://www.w3.org/2000/svg" viewBox="0 0 176 176" width="176" height="176"><defs>
<linearGradient id="bgg14" x1="0" y1="0" x2="0" y2="1">
  <stop offset="0" stop-color="#C4DECB"/><stop offset="1" stop-color="#E8F3EB"/>
</linearGradient>
<radialGradient id="glowg14" cx="0.5" cy="0.42" r="0.62">
  <stop offset="0" stop-color="#FFFFFF" stop-opacity="0.55"/><stop offset="1" stop-color="#FFFFFF" stop-opacity="0"/>
</radialGradient>
<linearGradient id="goldg14" x1="0" y1="0" x2="0" y2="1">
  <stop offset="0" stop-color="#FFE9A0"/><stop offset="0.55" stop-color="#F2C94C"/><stop offset="1" stop-color="#D19A1E"/>
</linearGradient>
</defs><rect x="5" y="5" width="166" height="166" rx="22" fill="url(#goldg14)" stroke="#8A5A0B" stroke-width="3.5"/><rect x="11" y="11" width="154" height="154" rx="17" fill="url(#bgg14)" stroke="#E8B84B" stroke-width="2"/><rect x="11" y="11" width="154" height="154" rx="17" fill="url(#glowg14)"/><g transform="translate(38,8)"><path d="M 50 40 Q 84 48 82 100 Q 82 116 66 118 L 34 118 Q 18 116 18 100 Q 16 48 50 40 Z" fill="#8A6642" stroke="#3A3128" stroke-width="3.2" stroke-linejoin="round"/><circle cx="38" cy="62" r="3.4" fill="#F5F0E1" stroke="#3A3128" stroke-width="1.8"/><circle cx="50" cy="64" r="3.4" fill="#F5F0E1" stroke="#3A3128" stroke-width="1.8"/><circle cx="62" cy="62" r="3.4" fill="#F5F0E1" stroke="#3A3128" stroke-width="1.8"/><ellipse cx="50" cy="46" rx="24" ry="22" fill="#B08A5A" stroke="#3A3128" stroke-width="3"/><polygon points="28,34 22,20 38,28" fill="#B08A5A" stroke="#3A3128" stroke-width="2.6" stroke-linejoin="round"/><polygon points="72,34 78,20 62,28" fill="#B08A5A" stroke="#3A3128" stroke-width="2.6" stroke-linejoin="round"/><path d="M 30 40 q 6 -3 10 0" fill="none" stroke="#B04A3A" stroke-width="2.6" stroke-linecap="round"/><path d="M 60 40 q 6 -3 10 0" fill="none" stroke="#B04A3A" stroke-width="2.6" stroke-linecap="round"/><circle cx="39" cy="46" r="3.2" fill="#3A3128" stroke="none" stroke-width="0"/><circle cx="38.04" cy="44.88" r="1.02" fill="#FFFFFF" stroke="none" stroke-width="0"/><circle cx="61" cy="46" r="3.2" fill="#3A3128" stroke="none" stroke-width="0"/><circle cx="60.04" cy="44.88" r="1.02" fill="#FFFFFF" stroke="none" stroke-width="0"/><path d="M 34 39 L 43 43" fill="none" stroke="#3A3128" stroke-width="2.8" stroke-linecap="round"/><path d="M 66 39 L 57 43" fill="none" stroke="#3A3128" stroke-width="2.8" stroke-linecap="round"/><ellipse cx="50" cy="60" rx="17" ry="10" fill="#C9A96E" stroke="#3A3128" stroke-width="2.6"/><circle cx="44" cy="58" r="2.4" fill="#3A3128" stroke="none" stroke-width="0"/><circle cx="56" cy="58" r="2.4" fill="#3A3128" stroke="none" stroke-width="0"/><path d="M 36 64 Q 30 74 36 80 Q 40 74 40 66 Z" fill="#F5F0E1" stroke="#3A3128" stroke-width="2.4" stroke-linejoin="round"/><path d="M 64 64 Q 70 74 64 80 Q 60 74 60 66 Z" fill="#F5F0E1" stroke="#3A3128" stroke-width="2.4" stroke-linejoin="round"/><path d="M 44 26 Q 50 12 56 26 L 56 32 L 44 32 Z" fill="#4A3A28" stroke="#3A3128" stroke-width="2.4" stroke-linejoin="round"/></g><rect x="13" y="13" width="28" height="28" rx="9" fill="#275534" stroke="#3A3128" stroke-width="2.4"/><g transform="translate(27.0,27.0)"><path d="M 0 5.2360000000000015 C -5.902400000000001 1.9040000000000004 -5.2360000000000015 -4.760000000000001 0 -5.2360000000000015 C 5.2360000000000015 -4.760000000000001 5.902400000000001 1.9040000000000004 0 5.2360000000000015 Z" fill="#C4DECB" stroke="none" stroke-width="0"/><line x1="0" y1="3.81" x2="0" y2="-4.0" stroke="#00000042" stroke-width="0.86" stroke-linecap="round"/></g><circle cx="149.0" cy="27.0" r="14.0" fill="#4E8B5E" stroke="#3A3128" stroke-width="2.4"/><circle cx="149.0" cy="27.0" r="10.0" fill="none" stroke="#FFFFFF88" stroke-width="1.6"/><polygon points="78.5,20.8 80.1,24.8 84.4,25.1 81.1,27.8 82.1,32.0 78.5,29.7 74.9,32.0 75.9,27.8 72.6,25.1 76.9,24.8" fill="#FFF3C4" stroke="#8A5A0B" stroke-width="1.4" stroke-linejoin="round"/><polygon points="97.5,23.8 99.1,27.8 103.4,28.1 100.1,30.8 101.1,35.0 97.5,32.7 93.9,35.0 94.9,30.8 91.6,28.1 95.9,27.8" fill="#FFF3C4" stroke="#8A5A0B" stroke-width="1.4" stroke-linejoin="round"/><rect x="11" y="132" width="154" height="33" rx="14" fill="#2A2620" opacity="0.93" stroke="#3A3128" stroke-width="2.2"/><g transform="translate(30,148.5) scale(0.92)"><path d="M 0 -8 L 2 -8 L 2 2 L 0 4 L -2 2 L -2 -8 Z" fill="#FFC46B" stroke="none" stroke-width="0"/><rect x="-3.5" y="2" width="7" height="2" rx="1" fill="#FFC46B" stroke="none" stroke-width="0"/><rect x="-1" y="4" width="2" height="5" rx="1" fill="#FFC46B" stroke="none" stroke-width="0"/><circle cx="0" cy="10" r="1.6" fill="#FFC46B" stroke="none" stroke-width="0"/></g><g transform="translate(146,148.5) scale(0.92)"><path d="M 0 8 C -8 2 -8 -5 -3.5 -5 C -1.5 -5 0 -3.5 0 -2 C 0 -3.5 1.5 -5 3.5 -5 C 8 -5 8 2 0 8 Z" fill="#FF8B8B" stroke="none" stroke-width="0"/></g></svg>