<svg xmlns="http://www.w3.org/2000/svg" viewBox="0 0 176 176" width="176" height="176"><defs>
<linearGradient id="bgg58" x1="0" y1="0" x2="0" y2="1">
  <stop offset="0" stop-color="#F4E3AC"/><stop offset="1" stop-color="#FBF5DE"/>
</linearGradient>
<radialGradient id="glowg58" cx="0.5" cy="0.42" r="0.62">
  <stop offset="0" stop-color="#FFFFFF" stop-opacity="0.55"/><stop offset="1" stop-color="#FFFFFF" stop-opacity="0"/>
</radialGradient>
<linearGradient id="goldg58" x1="0" y1="0" x2="0" y2="1">
  <stop offset="0" stop-color="#FFE9A0"/><stop offset="0.55" stop-color="#F2C94C"/><stop offset="1" stop-color="#D19A1E"/>
</linearGradient>
</defs><rect x="5" y="5" width="166" height="166" rx="22" fill="url(#goldg58)" stroke="#8A5A0B" stroke-width="3.5"/><rect x="11" y="11" width="154" height="154" rx="17" fill="url(#bgg58)" stroke="#E8B84B" stroke-width="2"/><rect x="11" y="11" width="154" height="154" rx="17" fill="url(#glowg58)"/><g transform="translate(38,8)">
<ellipse cx="50" cy="120" rx="24" ry="6.5" fill="#5C4A0B" stroke="none" stroke-width="0" opacity="0.18"/>
<rect x="38" y="64" width="24" height="38" rx="9" fill="#5E7D8C" stroke="#3A3128" stroke-width="3"/>
<rect x="33" y="36" width="34" height="30" rx="11" fill="#E8C55A" stroke="#3A3128" stroke-width="3"/>
<circle cx="44" cy="50" r="3.4" fill="#3A3128" stroke="none"/>
<circle cx="43.1" cy="48.9" r="1.05" fill="#FFFFFF" stroke="none"/>
<circle cx="57" cy="50" r="3.4" fill="#3A3128" stroke="none"/>
<circle cx="56.1" cy="48.9" r="1.05" fill="#FFFFFF" stroke="none"/>
<path d="M 45 58 q 5 4.5 10 0" fill="none" stroke="#3A3128" stroke-width="2.4" stroke-linecap="round"/>
<line x1="50" y1="36" x2="50" y2="27" stroke="#3A3128" stroke-width="2.4"/>
<circle cx="50" cy="24" r="3.6" fill="#E85D4A" stroke="#3A3128" stroke-width="2"/>
<ellipse cx="24" cy="64" rx="5.5" ry="8" fill="none" stroke="#3A3128" stroke-width="3"/>
<ellipse cx="24" cy="78" rx="5.5" ry="8" fill="none" stroke="#3A3128" stroke-width="3"/>
<ellipse cx="24" cy="92" rx="5.5" ry="8" fill="none" stroke="#3A3128" stroke-width="3"/>
<path d="M 38 74 Q 31 77 27 74" fill="none" stroke="#C9863B" stroke-width="5" stroke-linecap="round"/>
<path d="M 62 72 Q 70 74 74 79" fill="none" stroke="#C9863B" stroke-width="5" stroke-linecap="round"/>
<g transform="translate(74,80) rotate(12)">
<circle cx="0" cy="0" r="14" fill="#F2C94C" stroke="#3A3128" stroke-width="2.8"/>
<g transform="rotate(0)"><rect x="-2.4" y="-18.5" width="4.8" height="6.5" rx="1.8" fill="#F2C94C" stroke="#3A3128" stroke-width="1.8"/></g>
<g transform="rotate(60)"><rect x="-2.4" y="-18.5" width="4.8" height="6.5" rx="1.8" fill="#F2C94C" stroke="#3A3128" stroke-width="1.8"/></g>
<g transform="rotate(120)"><rect x="-2.4" y="-18.5" width="4.8" height="6.5" rx="1.8" fill="#F2C94C" stroke="#3A3128" stroke-width="1.8"/></g>
<g transform="rotate(180)"><rect x="-2.4" y="-18.5" width="4.8" height="6.5" rx="1.8" fill="#F2C94C" stroke="#3A3128" stroke-width="1.8"/></g>
<g transform="rotate(240)"><rect x="-2.4" y="-18.5" width="4.8" height="6.5" rx="1.8" fill="#F2C94C" stroke="#3A3128" stroke-width="1.8"/></g>
<g transform="rotate(300)"><rect x="-2.4" y="-18.5" width="4.8" height="6.5" rx="1.8" fill="#F2C94C" stroke="#3A3128" stroke-width="1.8"/></g>
<circle cx="0" cy="0" r="6" fill="#E85D4A" stroke="#3A3128" stroke-width="2"/>
<circle cx="0" cy="0" r="1.8" fill="#F5EDD8" stroke="none"/>
</g>
<circle cx="50" cy="82" r="2.6" fill="#F2C94C" stroke="#3A3128" stroke-width="1.6"/>
<rect x="60" y="96" width="6" height="18" rx="3" fill="#5C4A0B" stroke="#3A3128" stroke-width="2.4"/>
<rect x="34" y="96" width="6" height="18" rx="3" fill="#5C4A0B" stroke="#3A3128" stroke-width="2.4"/>
</g><rect x="13" y="13" width="28" height="28" rx="9" fill="#8A6E12" stroke="#3A3128" stroke-width="2.4"/><g transform="translate(27.0,27.0)"><g transform="rotate(0)"><rect x="-1.14" y="-5.9" width="2.28" height="2.67" rx="0.48" fill="#F4E3AC" stroke="none" stroke-width="0"/></g><g transform="rotate(45)"><rect x="-1.14" y="-5.9" width="2.28" height="2.67" rx="0.48" fill="#F4E3AC" stroke="none" stroke-width="0"/></g><g transform="rotate(90)"><rect x="-1.14" y="-5.9" width="2.28" height="2.67" rx="0.48" fill="#F4E3AC" stroke="none" stroke-width="0"/></g><g transform="rotate(135)"><rect x="-1.14" y="-5.9" width="2.28" height="2.67" rx="0.48" fill="#F4E3AC" stroke="none" stroke-width="0"/></g><g transform="rotate(180)"><rect x="-1.14" y="-5.9" width="2.28" height="2.67" rx="0.48" fill="#F4E3AC" stroke="none" stroke-width="0"/></g><g transform="rotate(225)"><rect x="-1.14" y="-5.9" width="2.28" height="2.67" rx="0.48" fill="#F4E3AC" stroke="none" stroke-width="0"/></g><g transform="rotate(270)"><rect x="-1.14" y="-5.9" width="2.28" height="2.67" rx="0.48" fill="#F4E3AC" stroke="none" stroke-width="0"/></g><g transform="rotate(315)"><rect x="-1.14" y="-5.9" width="2.28" height="2.67" rx="0.48" fill="#F4E3AC" stroke="none" stroke-width="0"/></g><circle cx="0" cy="0" r="4.0" fill="#F4E3AC" stroke="none" stroke-width="0"/><circle cx="0" cy="0" r="1.52" fill="#00000033" stroke="none" stroke-width="0"/></g><circle cx="149.0" cy="27.0" r="14.0" fill="#A09C92" stroke="#3A3128" stroke-width="2.4"/><circle cx="149.0" cy="27.0" r="10.0" fill="none" stroke="#FFFFFF88" stroke-width="1.6"/><rect x="77.0" y="15" width="22" height="22" rx="7" fill="#2A2620" stroke="#3A3128" stroke-width="2" opacity="0.92"/><g transform="translate(88.0,26.0) scale(0.9)"><circle cx="0" cy="-1.5" r="5" fill="#F5C542" stroke="none" stroke-width="0"/><rect x="-3.2" y="1.5" width="6.4" height="3.4" rx="1.4" fill="#F5C542" stroke="none" stroke-width="0"/><circle cx="-2.2" cy="-2" r="1.5" fill="#00000066" stroke="none" stroke-width="0"/><circle cx="2.2" cy="-2" r="1.5" fill="#00000066" stroke="none" stroke-width="0"/></g><polygon points="78.5,20.8 80.1,24.8 84.4,25.1 81.1,27.8 82.1,32.0 78.5,29.7 74.9,32.0 75.9,27.8 72.6,25.1 76.9,24.8" fill="#FFF3C4" stroke="#8A5A0B" stroke-width="1.4" stroke-linejoin="round"/><polygon points="97.5,23.8 99.1,27.8 103.4,28.1 100.1,30.8 101.1,35.0 97.5,32.7 93.9,35.0 94.9,30.8 91.6,28.1 95.9,27.8" fill="#FFF3C4" stroke="#8A5A0B" stroke-width="1.4" stroke-linejoin="round"/><rect x="11" y="132" width="154" height="33" rx="14" fill="#2A2620" opacity="0.93" stroke="#3A3128" stroke-width="2.2"/><g transform="translate(30,148.5) scale(0.92)"><path d="M 0 -8 L 2 -8 L 2 2 L 0 4 L -2 2 L -2 -8 Z" fill="#FFC46B" stroke="none" stroke-width="0"/><rect x="-3.5" y="2" width="7" height="2" rx="1" fill="#FFC46B" stroke="none" stroke-width="0"/><rect x="-1" y="4" width="2" height="5" rx="1" fill="#FFC46B" stroke="none" stroke-width="0"/><circle cx="0" cy="10" r="1.6" fill="#FFC46B" stroke="none" stroke-width="0"/></g><g transform="translate(146,148.5) scale(0.92)"><path d="M 0 8 C -8 2 -8 -5 -3.5 -5 C -1.5 -5 0 -3.5 0 -2 C 0 -3.5 1.5 -5 3.5 -5 C 8 -5 8 2 0 8 Z" fill="#FF8B8B" stroke="none" stroke-width="0"/></g></svg>
